<?xml version="1.0" encoding="UTF-8"?>
<svg id="Layer_2" data-name="Layer 2" xmlns="http://www.w3.org/2000/svg" viewBox="0 0 261.63 119.93">
  <defs>
    <style>
      .cls-1 {
        fill: #ffffff;
        stroke-width: 0px;
      }
    </style>
  </defs>
  <g id="Layer_1-2" data-name="Layer 1">
    <g id="b">
      <g id="c">
        <g>
          <path class="cls-1" d="m117.77,119.35c-.84.15-1.69.31-2.51.23-3.76-.42-7.54-.78-11.3-.38-3.86.43-5.37-.89-5.8-4.05-.26-1.98-.69-3.94-1.09-5.91-.09-.5-.67-.73-1.09-.42-1.87,1.4-3.79,2.78-5.6,4.29-1.71,1.42-3.14,3.17-4.9,4.53-3.22,2.51-6.04,1.77-7.55-1.96-1.58-3.93-3.03-7.9-4.48-11.88-.9-2.48-1.79-2.5-3.29.05-1.69,2.86-3.52,5.66-5.42,8.4-6.34,9.1-4.1,8.47-11.91-.55-1.56-1.79-2.95-3.75-4.3-5.73-1.54-2.25-2.5-1.89-3.09.12-.98,3.29-1.98,6.58-2.76,9.91-.63,2.71-2.54,2.77-4.65,2.66-2.12-.11-4.6.63-5.42-2.45-.51-1.94-1.11-3.88-1.81-5.77-.18-.49-.47-.93-.78-1.36-.38-.54-1.12-.66-1.63-.26-.47.36-.92.76-1.15,1.23-3.64,7.77-9.94,9.81-17.9,8.48-1.19-.19-2.44.07-3.64-.07-1.7-.2-3.39-.51-5.07-.81-.53-.08-.8-.67-.51-1.12.98-1.54,1.9-3.14,3.14-4.44,7.54-7.84,17.14-12.06,27.41-14.89,9.21-2.56,18.64-3.78,32.2-3.7,10.13.2,23.86,2.28,36.76,8.32,7.04,3.3,13.45,7.51,17.82,14.18.46.69.67,1.54.93,2.36.14.43-.15.88-.58.97l-.03.02Z"/>
          <path class="cls-1" d="m117.76,105.02c-5.61-2.33-11.21-4.69-16.7-7.27-.92-.43-1.56-1.81-1.96-2.89-.72-1.9-1.08-3.91-1.67-5.85-.74-2.35-2.86-2.85-4.6-1.09-.57.58-1.23,1.11-1.66,1.78-2.2,3.44-4.73,1.73-7.41.7-2.67-1.04-2.87-2.74-2.47-5.29.36-2.36.31-4.79.31-7.2,0-.84-.82-1.43-1.61-1.16-2.25.74-4.52,1.44-6.65,2.43-10.94,5.03-8.36,3.88-10.86-5.29-.73-2.7-1.55-5.35-2.37-8.03-.31-1.03-1.56-1.39-2.36-.69-2.02,1.75-4.05,3.49-6.06,5.25-.61.54-1.17,1.12-1.79,1.63-3.17,2.66-5.71,2.29-7.78-1.42-1.87-3.35-3.48-6.85-5.04-10.36-1.11-2.47-1.92-1.93-3.17-.09-1.46,2.1-2.89,5.22-4.87,5.71-2.08.51-4.82-1.54-7.22-2.56-2.89-1.24-5.73-2.54-9.06-4.03-.7-.31-.76-1.29-.09-1.7,7.46-4.56,15.01-5.31,22.61-4.92,24.94,1.29,46.79,10.7,66.11,26.15,6.68,5.34,12.5,11.55,16.02,19.53.73,1.66,1.24,3.41,1.82,5.13.38,1.11-.34,2.01-1.47,1.54h0Z"/>
          <path class="cls-1" d="m127.55,95.16c-.09,1.05-1.36,1.54-2.12.8-.86-.85-1.71-1.7-2.58-2.56-.85-.86-1.58-1.87-2.52-2.62-7.41-5.69-11.13-12.92-10.25-22.46.27-2.99-.43-3.14-3.01-1.43-.34.23-.61.62-.97.71-2.08.58-2.94,4.49-6.06,2.21-4.17-3.08-5.15-5.41-4.01-9.6.85-3.12,1.78-6.22,2.63-9.33.45-1.66-.22-2.4-2.25-1.93-1.7.4-3.4.78-5.13.97-9.7,1.05-10.48,2.28-10.53-3.3-.07-5.67.09-11.33.03-17-.04-3.35-.39-3.49-3.4-1.69-2.43,1.46-4.79,3.05-7.19,4.56-4.19,2.6-6.56,1.82-7.73-2.97-1.07-4.3-1.63-8.74-2.48-13.11-.18-.9-.43-1.78-.7-2.72-.28-1.04-1.58-1.4-2.36-.66h0c-2.01,1.89-4.15,5.44-5.96,5.27-2.35-.2-4.4-4.03-6.57-5.93-1.56-1.39-2.98-2.94-4.4-4.49-3.97-4.36-4.64-4.01-1-6.76,1.3-.58,2.31-.88,3.36-1.01,2.02-.28,4.09,0,6.02.63,9.04,3.05,17.82,6.56,25.67,12.11,16.64,11.78,29.97,26.57,40.53,43.89,5.91,9.72,10.71,19.96,12.64,31.31.38,2.25.57,4.53.35,7.11Z"/>
          <path class="cls-1" d="m137.11,108.76c-2.21,4.13-3.99,7.49-5.85,10.95-.49.81-1.24-.89-1.48-1.38-1.42-2.83-2.78-5.68-4.14-8.54-.27-.57.11-1.24.74-1.29,3.08-.27,6.23-.54,9.99-.86.59-.05,1.01.59.74,1.12h0Z"/>
          <path class="cls-1" d="m224.18,5.32c-4.36,3.61-8.2,7.76-11.69,12.19-1.59,2.01-2.56,1.05-3.75-.3-.26-.31-.53-.59-.82-.85-1.2-1.07-2.4-2.12-3.61-3.16-.57-.5-1.44-.22-1.63.5-.4,1.58-.82,3.16-1.13,4.76-.63,3.16-.98,6.39-1.75,9.52-.42,1.69-1.28,3.33-2.23,4.82-1.16,1.82-2.6,2-4.55.63-3.17-2.24-6.53-4.25-10.24-6.57-.63-.39-1.44.05-1.44.8,0,6.31,0,12,0,17.68-.04,5.64-.39,5.95-5.92,5.19-3.01-.42-6-1-9.01-1.35-3.18-.39-3.49,0-2.72,3.16.66,2.74,1.56,5.44,2.2,8.17.35,1.5,1,3.45.35,4.51-1.23,2.01-3.16,3.68-5.07,5.13-.53.4-2.12-.35-3.09-.85-1.52-.78-2.99-1.65-4.48-2.51-.76-.45-1.71.03-1.82.89-.24,1.78-.51,3.56-.35,5.31.49,5.69-1.42,10.09-5.85,13.73-3.32,2.74-6.37,5.79-9.86,9.12-.62.59-1.65.11-1.58-.76.23-3.12.36-6.07.94-8.94,2.56-12.45,8.27-23.59,15.24-34.08,11.19-16.87,24.76-31.55,42.26-42.06,3.48-2.09,7.23-3.78,11.01-5.37,1.97-.84,4.01-1.54,6.07-2.09,2.06-.57,4.18-.97,6.31-1.24,1-.13,2-.22,3.01-.28.51-.03,1.01-.05,1.51-.07.49,0,.99,0,1.47.09.16.03.32.05.47.09.69.19,1.25.55,1.82.94,1.47,1,1.92,1.59-.04,3.22l-.02.03Z"/>
          <path class="cls-1" d="m249.59,59.06c-5.85,2.6-10.72,4.83-15.67,6.84-.72.3-2.28-.45-2.89-1.17-1.42-1.73-2.62-3.64-4.11-5.89-.32-.49-1.05-.43-1.31.09-1.86,3.75-3.45,7.03-5.11,10.25-2.95,5.75-4.83,6.06-9.55,1.98-2.7-2.31-5.53-4.44-8.32-6.62-.45-.34-1.07-.12-1.2.42-.82,3.32-1.66,6.65-2.41,9.99-1.85,8.19-1.82,8.19-9.32,4.75-.19-.09-.36-.18-.55-.24-2.63-1.08-5.26-2.14-7.89-3.21-.5-.22-1.04.16-1.04.7.03,2.75-.08,5.52.32,8.21.51,3.3-1.03,4.56-3.75,5.83-2.75,1.29-4.32.7-6.29-1.36-4.67-4.88-5.07-4.84-6.51,1.5-1.07,4.63-3.43,7.38-7.88,8.88-3.63,1.21-7.05,3.03-10.61,4.49-.58.24-1.24.3-1.89.36-.45.04-.82-.31-.84-.76,0-.71-.03-1.44.26-2.01,2.24-4.26,4.07-8.92,7.11-12.56,4.1-4.92,8.78-9.59,13.92-13.43,18.03-13.5,38.2-21.99,60.91-23.23,5.96-.32,12.05.89,17.99,1.86,2.08.34,3.99,1.59,6.66,2.95.57.3.55,1.12-.03,1.38h0Z"/>
          <path class="cls-1" d="m260.79,118.98c-.85.28-1.7.57-2.55.57-4.06.01-8.12-.38-12.17-.3-2.98.07-3.83-1.56-4.22-4.01-.28-1.67-.62-3.35-.96-5.02-.19-.92-1.25-1.34-2.01-.78-1.65,1.21-3.29,2.4-4.86,3.7-1.71,1.42-3.14,3.2-4.91,4.53-3.3,2.54-6.03,1.78-7.55-2.02-1.58-3.94-3.02-7.93-4.46-11.92-.93-2.58-1.88-2.09-3.09-.18-2.83,4.44-5.65,8.89-8.63,13.22-1.77,2.58-2.59,2.6-4.57.2-2.85-3.43-5.48-7.01-8.25-10.51-.27-.32-.57-.63-.89-.92-.62-.57-1.59-.45-2.04.28-.31.51-.59,1.03-.77,1.58-.89,2.7-1.75,5.4-2.35,8.16-.63,2.87-2.49,3.21-4.96,3.16-2.54-.07-4.76.01-5.62-3.2-.55-2.04-1.51-3.97-2.41-5.92-.34-.71-1.28-.85-1.81-.26-1.36,1.55-2.78,3.06-3.78,4.8-2.36,4.1-5.72,5-10.62,4.29-3.84-.55-7.73-.59-11.59-.08-2.32.3-3.32-.7-1.97-2.2,2.55-2.85,4.98-5.92,7.97-8.24,10.04-7.82,21.88-11.29,34.23-13.14,5.4-.81,10.87-1.08,14.01-1.38,16.47.24,30.21,2.36,43.15,8.35,6.69,3.1,12.79,7.05,17.21,13.12.53.73.88,1.58,1.21,2.43.28.67-.07,1.44-.75,1.67v.02Z"/>
        </g>
      </g>
    </g>
  </g>
</svg>
