<svg width="210" height="30" viewBox="0 0 210 30" xmlns="http://www.w3.org/2000/svg">
    <g fill="#FFF">
        <path d="m17.874 17.644 1.293 1.379c-.834.948-2.156 1.494-3.793 1.494-3.075 0-5.403-2.356-5.403-5.517 0-3.16 2.328-5.517 5.403-5.517 1.637 0 2.988.546 3.793 1.494l-1.293 1.38c-.46-.547-1.38-.949-2.385-.949-1.955 0-3.449 1.523-3.449 3.592s1.494 3.592 3.449 3.592c1.005.029 1.925-.402 2.385-.948z"/>
        <path d="M20.92 9.655h2.126v10.69H20.92z"/>
        <path d="M33.362 9.655v1.81h-3.19v8.88h-2.126v-8.85h-3.19V9.683h8.506z"/>
        <path d="M35.172 9.655H37.3v10.69h-2.127z"/>
        <path d="M47.644 9.655V9.8l-5.201 8.735h5.2v1.81h-8.476v-.143l5.2-8.735h-4.856v-1.81z"/>
        <path d="M57.241 11.494h-5.373v2.529h4.569v1.753h-4.57v2.787h5.403v1.81h-7.529V9.656h7.53v1.84z"/>
        <path d="M69.052 20.345H67.5l-5.776-6.925v6.925h-2.098V9.655h1.552l5.776 6.925V9.655h2.098z"/>
        <path d="M83.764 17.644l1.293 1.379c-.833.948-2.155 1.494-3.793 1.494-3.074 0-5.402-2.356-5.402-5.517 0-3.16 2.328-5.517 5.402-5.517 1.638 0 2.989.546 3.793 1.494l-1.293 1.38c-.46-.547-1.379-.949-2.385-.949-1.954 0-3.448 1.523-3.448 3.592s1.494 3.592 3.448 3.592c.977.029 1.926-.402 2.385-.948z"/>
        <path d="M91.753 9.655l4.54 10.575v.115H94.11l-.804-1.983h-4.656l-.804 1.983h-2.213v-.115l4.54-10.575h1.58zm-2.414 7.04h3.305l-1.638-4.109-1.667 4.11z"/>
        <path d="M104.828 11.494h-4.943v2.644h4.224v1.753h-4.224v4.454H97.76V9.655h7.097v1.84z"/>
        <path d="M114.397 11.494h-5.403v2.529h4.57v1.753h-4.57v2.787h5.403v1.81h-7.53V9.656h7.53v1.84zm-3.219-4.684h2.328l-2.012 2.098h-1.724l1.408-2.098z"/>
        <path d="M140.029 9.655v1.81h-3.19v8.88h-2.126v-8.85h-3.19V9.683h8.506z"/>
        <path d="M149.626 11.494h-5.402v2.529h4.57v1.753h-4.57v2.787h5.402v1.81h-7.528V9.656h7.528z"/>
        <path d="M153.85 18.534h4.828v1.81h-6.954V9.656h2.127v8.88z"/>
        <path d="M170.144 9.655l4.54 10.575v.115h-2.213l-.804-1.983h-4.656l-.804 1.983h-2.213v-.115l4.54-10.575h1.61zm-2.414 7.04h3.304l-1.637-4.109-1.667 4.11z"/>
        <path d="M177.787 20.345 173.534 9.77v-.115h2.3l2.73 7.098 2.73-7.098h2.298v.115l-4.253 10.575z"/>
        <path d="M185.431 9.655h2.126v10.69h-2.126z"/>
        <path d="M193.65 20.345 189.396 9.77v-.115h2.298l2.73 7.098 2.73-7.098h2.299v.115l-4.253 10.575z"/>
    </g>
</svg>
