<svg xmlns="http://www.w3.org/2000/svg" xmlns:xlink="http://www.w3.org/1999/xlink" viewBox="0 0 2571.99 757">
  <defs>
    <style>
      .cls-1 {
        fill: none;
      }

      .cls-2 {
        fill: #fff;
      }

      .cls-3 {
        fill: url(#linear-gradient);
      }

      .cls-4 {
        fill: #e30000;
      }

      .cls-5 {
        fill: #bd0000;
      }

      .cls-6 {
        isolation: isolate;
      }

      .cls-7 {
        clip-path: url(#clip-path);
      }

      .cls-8 {
        fill: #a30000;
      }

      .cls-9 {
        fill: #9f0000;
      }

      .cls-10 {
        fill: #9a0000;
      }

      .cls-11 {
        fill: #960000;
      }

      .cls-12 {
        fill: #910000;
      }

      .cls-13 {
        fill: #8d0000;
      }

      .cls-14 {
        fill: #800;
      }

      .cls-15 {
        fill: #840000;
      }

      .cls-16 {
        fill: #7f0000;
      }

      .cls-17 {
        fill: #7b0000;
      }

      .cls-18 {
        fill: #760000;
      }

      .cls-19 {
        fill: #930000;
      }

      .cls-20 {
        fill: #720000;
      }

      .cls-21 {
        fill: #7a0000;
      }

      .cls-22 {
        fill: #bf0000;
      }

      .cls-23 {
        fill: url(#linear-gradient-2);
      }

      .cls-24 {
        fill: url(#linear-gradient-3);
      }

      .cls-25 {
        fill: #f00000;
      }

      .cls-26 {
        fill: url(#linear-gradient-4);
      }

      .cls-27 {
        fill: #d20000;
      }

      .cls-28 {
        fill: #f5696f;
      }

      .cls-29 {
        fill: url(#linear-gradient-5);
      }

      .cls-30 {
        fill: url(#linear-gradient-6);
      }

      .cls-31 {
        fill: url(#linear-gradient-7);
      }

      .cls-32 {
        fill: url(#linear-gradient-8);
      }

      .cls-33 {
        fill: #fbacaf;
      }

      .cls-34 {
        fill: url(#linear-gradient-9);
      }

      .cls-35 {
        fill: #231f20;
      }

      .cls-36 {
        fill: url(#linear-gradient-10);
      }
    </style>
    <linearGradient id="linear-gradient" x1="613.34" y1="757" x2="613.34" gradientUnits="userSpaceOnUse">
      <stop offset="0"/>
      <stop offset="0.5" stop-color="#bebebe"/>
      <stop offset="1"/>
    </linearGradient>
    <clipPath id="clip-path">
      <path class="cls-1" d="M574.06,528.89a45.29,45.29,0,0,0-5.28-.82,22,22,0,0,0-4.1,0,25.83,25.83,0,0,0-4.13.76,45.32,45.32,0,0,0-4.81,1.58l29.83-11.64C577.64,526.12,574.57,529,574.06,528.89Z"/>
    </clipPath>
    <linearGradient id="linear-gradient-2" x1="96.01" y1="631.07" x2="117.62" y2="595.1" gradientUnits="userSpaceOnUse">
      <stop offset="0" stop-color="#f47676"/>
      <stop offset="1" stop-color="#e30000"/>
    </linearGradient>
    <linearGradient id="linear-gradient-3" x1="754.66" y1="476.11" x2="754.66" y2="530.82" xlink:href="#linear-gradient-2"/>
    <linearGradient id="linear-gradient-4" x1="12.84" y1="453.83" x2="318.56" y2="377.61" gradientUnits="userSpaceOnUse">
      <stop offset="0" stop-color="#be0000"/>
      <stop offset="1" stop-color="#b80000"/>
    </linearGradient>
    <linearGradient id="linear-gradient-5" x1="429.65" y1="470.92" x2="611.91" y2="167.57" gradientUnits="userSpaceOnUse">
      <stop offset="0" stop-color="#e10000"/>
      <stop offset="0.1" stop-color="#d20000"/>
      <stop offset="0.24" stop-color="#c70000"/>
      <stop offset="0.44" stop-color="#c00000"/>
      <stop offset="1" stop-color="#be0000"/>
    </linearGradient>
    <linearGradient id="linear-gradient-6" x1="425.99" y1="470.19" x2="436.26" y2="176.12" gradientUnits="userSpaceOnUse">
      <stop offset="0" stop-color="#fcc4c7"/>
      <stop offset="0.07" stop-color="#faabaf"/>
      <stop offset="0.15" stop-color="#f8959a"/>
      <stop offset="0.25" stop-color="#f7848a"/>
      <stop offset="0.37" stop-color="#f6797e"/>
      <stop offset="0.53" stop-color="#f57278"/>
      <stop offset="1" stop-color="#f57076"/>
    </linearGradient>
    <linearGradient id="linear-gradient-7" x1="260.61" y1="362.92" x2="293.32" y2="340.86" gradientUnits="userSpaceOnUse">
      <stop offset="0" stop-color="#f00000"/>
      <stop offset="1" stop-color="#bd0000"/>
    </linearGradient>
    <linearGradient id="linear-gradient-8" x1="457.64" y1="411.38" x2="625.5" y2="411.38" xlink:href="#linear-gradient-5"/>
    <linearGradient id="linear-gradient-9" x1="1220.55" y1="226.05" x2="1551.97" y2="226.05" gradientUnits="userSpaceOnUse">
      <stop offset="0" stop-color="#231f20"/>
      <stop offset="0.38" stop-color="#252122"/>
      <stop offset="0.52" stop-color="#2c2829"/>
      <stop offset="0.62" stop-color="#373334"/>
      <stop offset="0.7" stop-color="#484445"/>
      <stop offset="0.77" stop-color="#5d5a5b"/>
      <stop offset="0.83" stop-color="#787676"/>
      <stop offset="0.88" stop-color="#989697"/>
      <stop offset="0.93" stop-color="#bdbcbc"/>
      <stop offset="0.98" stop-color="#e5e5e5"/>
      <stop offset="1" stop-color="#fff"/>
    </linearGradient>
    <linearGradient id="linear-gradient-10" x1="2170.57" y1="579.76" x2="2571.99" y2="579.76" gradientUnits="userSpaceOnUse">
      <stop offset="0" stop-color="#231f20"/>
      <stop offset="0.33" stop-color="#252122"/>
      <stop offset="0.47" stop-color="#2c2829"/>
      <stop offset="0.57" stop-color="#383536"/>
      <stop offset="0.66" stop-color="#4a4747"/>
      <stop offset="0.74" stop-color="#615e5f"/>
      <stop offset="0.81" stop-color="#7d7a7b"/>
      <stop offset="0.87" stop-color="#9e9d9d"/>
      <stop offset="0.93" stop-color="#c5c4c4"/>
      <stop offset="0.98" stop-color="#f0f0f0"/>
      <stop offset="1" stop-color="#fff"/>
    </linearGradient>
  </defs>
  <g id="Layer_2" data-name="Layer 2">
    <g id="Layer_1-2" data-name="Layer 1">
      <path d="M1365,272h83.73c-4.08,19.92-8.1,39.53-12.12,59.14l.59.33c1.48-2.18,2.93-4.39,4.46-6.54,5.2-7.25,12-10.94,21.2-10.89,17.82.11,35.64-.47,53.46-.48a99.15,99.15,0,0,1,16.39,1.53,19.82,19.82,0,0,1,13.42,8.59c11.16,15.83,13.89,33.67,10.77,52-4.38,25.72-10.37,51.17-15.76,76.72-4.32,20.5-8.84,41-13.06,61.5a12.28,12.28,0,0,0,1,6.56,97.53,97.53,0,0,0,4.87,9.21h-94.86a3,3,0,0,1,.09-1.22c10.87-19.65,15.8-41.14,20.12-62.92,6.58-33.11,13.61-66.14,20.65-99.17.71-3.32-.06-4.76-2.89-6.18-12.82-6.47-25.39-4.45-38.17.3-6.46,2.4-10.07,5.93-11.55,13.09-9.3,45-19.19,89.77-28.54,134.71-.94,4.52.37,9.53.83,14.3a70,70,0,0,0,1.44,7.14h-92c15.32-20.24,16.25-44.66,21.38-67.63,12.29-55,23.85-110.23,35.46-165.41,1-4.89.42-10.15.28-15.23A94.4,94.4,0,0,0,1365,272Z"/>
      <path d="M836.85,367.72c3.76-18,7.25-34.75,10.84-51.93h5.62c49.31,0,98.63-.3,148,.21,12.73.13,25.53,2.24,38.13,4.45,11.85,2.09,18.92,12.59,21.37,27.15,2.54,15.15-1.33,29.44-4.36,43.89-7,33.53-14.6,67-21.09,100.6-2,10.3-1.23,21.14-1.68,31.73-.1,2.28,0,4.56,0,7H950.89V511.57c-2.67,3.75-4.59,6.86-6.91,9.62-5.5,6.55-12.23,10-21.23,9.89-27.65-.34-55.31-.12-83-.13-8.68,0-15.4-5.18-17.55-13.48-4.92-18.93-4.48-37.93-.3-56.88,2.3-10.38,4.61-20.8,7.81-30.91,5.76-18.15,18.12-29.72,36.55-35a166.37,166.37,0,0,1,43.76-6.84c17.49-.22,35,0,52.48-.07,11.23,0,19.13-6.39,21.08-16.69,1.51-8-2.37-12.85-10.63-13.09-5-.15-10,0-15,0-30.15,0-60.31.13-90.46-.11-6.68-.05-12.79.87-18.62,4.18C845.46,364,841.75,365.43,836.85,367.72Zm128.68,58a83.27,83.27,0,0,0-8.5-.93c-9.66-.06-19.32.09-29,.11-11.67,0-15.91,3.47-18.17,14.74-2.13,10.6-4.56,21.14-6.38,31.79-2.43,14.25-1.11,14.37,11.36,17.42,12.79,3.14,24.32-1.57,35.11-8a11.78,11.78,0,0,0,5.18-6.54C958.82,458.54,962,442.57,965.53,425.77Z"/>
      <path d="M2150.22,445.94c-3.81.35-7.42,1-11,1q-56.49.1-113,0c-11.28,0-13.27,1-14.36,12.09-.8,8.13.24,16.48,1,24.69.13,1.51,2.35,3.3,4,4.1a15.45,15.45,0,0,0,6.34,1.11c28.61.28,57.29,2.34,85.76-2.09,10.62-1.65,21.08-4.27,32.73-6.68-5.46,16.94-10.82,33.62-16.35,50.78h-5.23q-68.74-.09-137.48-.18c-12.49,0-25-.18-37.48-.33-11.91-.14-22.21-12-22-23.91.4-23.39,7.42-45.57,11.86-68.21,5.48-27.91,11.51-55.72,17.69-83.48,4.59-20.66,18.86-32.57,37.85-39.68,1.78-.67,4-.37,5.94-.37h147c11.38,0,20.25,7.1,24,17.94,3.51,10.08,2.56,19.76.34,29.87C2161.69,390.19,2156.09,417.89,2150.22,445.94Zm-126-43.16c21.65,0,42.42.05,63.19-.15,1.07,0,2.76-2.06,3.09-3.42,1.92-7.9,3.55-15.87,5.21-23.84,2.35-11.35-1.58-17.53-13.1-19.4a94.66,94.66,0,0,0-37.63,1.26c-6.14,1.47-12,4.4-13.6,11.13C2028.7,379.45,2026.71,390.72,2024.24,402.78Z"/>
      <path d="M1232.84,401.64c1.35-6.68,3.16-13.26,3.94-20,1.63-13.93-5.37-22.08-19.22-21.73a297.34,297.34,0,0,0-32.17,3c-5.86.79-9.09,4.35-10.43,10.81-6.57,31.77-13.75,63.41-20.61,95.12a49.34,49.34,0,0,0-.84,9.42c-.12,6.5,3.38,10,10,10.09,11.17.08,22.34.22,33.5-.14a11.94,11.94,0,0,0,7.25-3.37c8.13-8.1,11.25-18.65,13.38-29.54.76-3.91,1.26-7.87,1.92-12.1h85.74c-1.94,9.13-3.57,18.07-5.78,26.86-3.83,15.23-8.81,30.05-18,43-8.45,11.89-19.43,18.14-34.66,18-42.66-.48-85.33.08-128-.34-10.06-.1-20.1-2.39-30.14-3.69a10.79,10.79,0,0,1-1.94-.48c-17-5.21-23.2-13.13-21.19-30.79,1.69-14.83,5.09-29.47,8.12-44.12,6.5-31.45,12.95-62.91,20-94.24,4.23-18.74,14.76-33,33.29-40.16a19.1,19.1,0,0,1,6.76-1.29q62.73.14,125.47.45c14.66.07,29.32.22,44,.33,8.48.06,13.23,3.37,16.11,11.47,3.68,10.34,3.19,21.13,2,31.66-1.47,12.87-4.32,25.57-6.45,38.37-.42,2.52-1.2,3.74-4.07,3.72-25.49-.1-51-.07-76.49-.09A7.59,7.59,0,0,1,1232.84,401.64Z"/>
      <path d="M1791.25,314.09c-1.29,6.16-2.5,11.91-3.7,17.67,10.25-13.49,24.31-17.05,40-16.8,18.47.29,36.93.55,55.4.93a41.53,41.53,0,0,1,7.88,1.16c13.77,3,19,9.4,19.88,23.43,1.28,20.56-2.87,40.32-7.4,60.2-8.58,37.62-16.36,75.43-24.3,113.19a12.07,12.07,0,0,0,1.23,7c1.51,3.25,3.69,6.18,5.79,9.57h-97.32c2.49-5.17,4.51-9.67,6.78-14,9.36-18,11.8-38,16-57.48,6.37-29.6,12.37-59.27,18.52-88.92,1.61-7.76,1.22-8.63-6.15-11.44-15.08-5.76-28.79-1.06-42,5.93-1.24.65-1.84,3-2.22,4.75q-10,45.56-19.89,91.14c-3.19,14.79-6,29.67-9.43,44.41-1.64,7-1.87,13.77.56,20.59.48,1.35.69,2.8,1.15,4.72h-92.3c2.08-3.09,4.06-5.84,5.86-8.7,6.93-11,8.42-23.73,11.08-36,10.54-48.78,20.81-97.61,31.54-146.35,1.51-6.89-.06-13.14-.91-19.66-.21-1.63-.49-3.24-.8-5.22Z"/>
      <path d="M1550.22,529.65c9.89-9.63,12.44-21.29,15-33.12q16.5-76.81,33.44-153.54a29.47,29.47,0,0,0-2.19-19.88,62.49,62.49,0,0,1-2.16-6h87.22c-3.14,14.79-6.24,29.36-9.36,43.94-10,46.67-20.26,93.27-29.68,140.05-1.83,9.06-.26,18.81-.26,28.54Z"/>
      <path d="M2351.79,537c-9.66,0-19.31,0-29,0-6.83,0-11.28-3.71-11-10.58a125.92,125.92,0,0,1,2.9-21.12c2.4-11.54,4.77-23.13,8.18-34.38,3-9.73,10-13.91,20-13.91q27.72,0,55.44,0c8.87,0,13.09,3.59,12.08,12.46-1.28,11.35-3.94,22.55-6.23,33.77a175.9,175.9,0,0,1-4.64,18.86c-3.43,10.6-9.76,14.89-20.8,14.9Zm3.74-16c2.16,0,4.33-.1,6.49,0,3.42.19,5.34-1.45,6-4.67q4.2-19.51,8.33-39c.59-2.85-.6-4.49-3.69-4.47-3.34,0-6.67,0-10,0-6.69,0-8.55,1.44-9.94,7.91q-3.15,14.63-6.17,29.3C2344.34,521,2344.37,521,2355.53,521Z"/>
      <path d="M2308.51,488.76h-31.12c.44-2.8,1-5.39,1.22-8,.41-4.46-1.92-7.24-6.2-7.4a49.74,49.74,0,0,0-12.81,1.23c-1.57.36-3.42,2.65-3.85,4.37-2.79,11.3-5.28,22.67-7.76,34-1.43,6.53-.16,8,6.67,8,13.6,0,14.55-.85,17.61-16.63h33.2c-3.19,8.66-5.74,17-9.36,24.87-2.51,5.43-7.47,7.95-13.91,7.84-16-.26-32,0-48-.12a47.48,47.48,0,0,1-8.41-.84c-10.3-1.91-13.08-5.75-11-16.06q4.82-24.19,10.18-48.29c2.39-10.76,9-15.87,19.78-15.75,19.31.2,38.62.52,57.92.82,5,.08,7.82,2.45,7.75,8.26C2310.32,473,2309.19,480.85,2308.51,488.76Z"/>
      <path d="M2542.51,535.79h-31.3c8.93-28.32,13.26-57.77,20.12-86.6.8-3.37-.3-7.18-.54-11h31.84C2555.94,470.6,2549.31,502.77,2542.51,535.79Z"/>
      <path d="M2470.68,535.74c2-8.07,4.09-15.85,5.87-23.7,3-13.47,6.08-26.94,8.76-40.48,1-4.9.93-10,1.38-15.37h31c-5.49,26.52-10.93,52.8-16.46,79.55Z"/>
      <path d="M2149.8,534.68c1.72-7.94,3.23-15.42,5.06-22.82.29-1.15,2-2.76,3.11-2.77,16.11-.18,32.23-.13,49.12-.13-1.88,8.81-3.67,17.15-5.51,25.72Z"/>
      <path d="M2408.75,534.8c2-8.89,3.81-17.27,5.65-25.59h51.7c-1.91,8.73-3.74,17.12-5.59,25.59Z"/>
      <path class="cls-2" d="M965.53,425.77c-3.53,16.8-6.71,32.77-10.38,48.63a11.78,11.78,0,0,1-5.18,6.54c-10.79,6.39-22.32,11.1-35.11,8-12.47-3-13.79-3.17-11.36-17.42,1.82-10.65,4.25-21.19,6.38-31.79,2.26-11.27,6.5-14.71,18.17-14.74,9.66,0,19.32-.17,29-.11A83.27,83.27,0,0,1,965.53,425.77Z"/>
      <path class="cls-2" d="M2024.24,402.78c2.47-12.06,4.46-23.33,7.16-34.42,1.63-6.73,7.46-9.66,13.6-11.13a94.66,94.66,0,0,1,37.63-1.26c11.52,1.87,15.45,8,13.1,19.4-1.66,8-3.29,15.94-5.21,23.84-.33,1.36-2,3.41-3.09,3.42C2066.66,402.83,2045.89,402.78,2024.24,402.78Z"/>
      <path class="cls-2" d="M2355.53,521c-11.16,0-11.19,0-9-11q3-14.67,6.17-29.3c1.39-6.47,3.25-7.9,9.94-7.91,3.33,0,6.66,0,10,0,3.09,0,4.28,1.62,3.69,4.47q-4.1,19.53-8.33,39c-.69,3.22-2.61,4.86-6,4.67C2359.86,520.86,2357.69,521,2355.53,521Z"/>
      <g>
        <g>
          <circle cx="427.34" cy="378.5" r="378.5"/>
          <path class="cls-3" d="M427.34,0c-2.17,0-4.34,0-6.5.06,206,3.47,372,171.57,372,378.44s-166,375-372,378.44c2.16,0,4.33.06,6.5.06,209,0,378.5-169.46,378.5-378.5S636.38,0,427.34,0Z"/>
        </g>
        <g>
          <path class="cls-4" d="M769.53,532.86H554.65s13.26-12.21,16.19-24.07,49.53-201.91,49.53-201.91L463.72,532H263.35L286,346.51s-.74-.65-1,0S116,597,116,597s-11.72,15.44-8.56,43.07H0l48-42.42,227.44-369,167.81-50.23L430.88,463.86l173.58-298.6,178.33-58,5.72-2L754,479.25S748.09,510.15,769.53,532.86Z"/>
          <g>
            <g>
              <path class="cls-5" d="M755.72,518.82H579.21l.06-.14.24-.5c.16-.34.32-.69.47-1,.08-.18.17-.36.25-.55.16-.37.31-.74.47-1.12.07-.16.13-.32.2-.49s.05-.11.07-.17l.12-.32c.23-.59.45-1.2.66-1.8L582,512c.22-.68.42-1.37.61-2.06,0-.07,0-.15.07-.23l0-.12L571,506.74a1.33,1.33,0,0,0,0,.19c-.15.57-.32,1.15-.51,1.72l-.06.2c-.2.57-.42,1.14-.65,1.71,0,.09-.07.19-.11.28-.28.66-.58,1.32-.9,2l-.12.24c-.32.65-.67,1.3-1,1.93l-.12.21c-.47.82-1,1.63-1.47,2.41l-.09.14q-.75,1.14-1.53,2.22l-.16.23c-.19.27-.39.54-.59.8l-.17.23c-.25.34-.51.67-.76,1l-.21.26-.56.7-.27.33-.5.61-.26.3-.52.61-.22.25c-.24.28-.47.54-.71.8l-.06.07c-.21.24-.41.46-.62.68l-.21.24-.44.46-.86.9-.27.28c-.07.07-.14.15-.21.21a3.44,3.44,0,0,1-.27.27l-.17.18-.24.24-.15.15-.22.21-.13.12-.21.21-.07.06-.19.18,0,0-.26.25H767.72Z"/>
              <path class="cls-5" d="M599.55,440.88q.78-3.19,1.59-6.47t1.61-6.58l.54-2.2c1.45-5.91,2.92-11.89,4.38-17.86,2.18-8.88,4.36-17.75,6.56-26.74l.18-.71c3.3-13.47,6.67-27.22,10.22-41.68q1.82-7.44,3.72-15.17,1.2-4.91,2.44-10c0-.15.11-.46.21-.86.06-.23.11-.46.17-.69s.15-.62.24-1c.18-.71.35-1.42.53-2.14h0c.09-.38.18-.76.28-1.13a11.71,11.71,0,0,0-6.72-13.8l-4.94,10.93c-1.16,4.76-12.82,52.27-24.54,100.08-5.87,23.9-11.75,47.88-16.35,66.62-.28,1.17-.57,2.32-.84,3.45-1.39,5.65-2.64,10.75-3.72,15.15-.54,2.2-1,4.22-1.48,6-.36,1.46-.69,2.8-1,4L571,506.74l11.65,2.88c1-3.9,6.37-26,13.3-54.17C597.13,450.75,598.32,445.87,599.55,440.88Z"/>
            </g>
            <g class="cls-6">
              <g class="cls-7">
                <g class="cls-6">
                  <path class="cls-8" d="M555.74,530.46l29.83-11.64c-2.82,2.6-5,4.63-6.72,6.17l-22.52,4.91c-.37.37-.59.56-.59.56"/>
                  <path class="cls-9" d="M556.33,529.9,578.85,525l-1.59,1.43-20.48,3-.45.45"/>
                  <path class="cls-10" d="M556.78,529.45l20.48-3-.76.68-19.4,2-.32.31"/>
                  <path class="cls-11" d="M557.1,529.14l19.4-2a1.07,1.07,0,0,0-.16.14l-19.16,1.82-.08.08"/>
                  <path class="cls-12" d="M557.18,529.06l19.16-1.82-.16.13L557.26,529l-.08.08"/>
                  <path class="cls-13" d="M557.26,529l18.92-1.61-.15.13-18.69,1.4-.08.08"/>
                  <path class="cls-14" d="M557.34,528.9,576,527.5l-.14.12-18.47,1.19-.08.09"/>
                  <path class="cls-15" d="M557.42,528.81l18.47-1.19-.14.12-18.25,1-.08.08"/>
                  <path class="cls-16" d="M557.5,528.73l18.25-1-.13.11-18,.79-.09.09"/>
                  <path class="cls-17" d="M557.59,528.64l18-.79-.13.1-17.81.6-.09.09"/>
                  <path class="cls-18" d="M557.68,528.55l17.81-.6c-.81.67-1.26,1-1.43.94l-14.35-2.52c-.76.84-1.45,1.57-2,2.18"/>
                </g>
              </g>
            </g>
            <polygon class="cls-19" points="782.98 105.22 786.74 116.77 775.35 117.22 788.51 105.22 782.98 105.22"/>
            <rect class="cls-20" x="-7.85" y="616.84" width="64.07"/>
            <rect class="cls-20" x="181.39" y="437.22" width="186.89"/>
            <rect class="cls-20" x="-54.83" y="411.12" width="433.48"/>
            <rect class="cls-17" x="271.95" y="201.49" width="175.17"/>
            <rect class="cls-20" x="345.16" y="312.51" width="345.39"/>
            <rect class="cls-21" x="600.06" y="134.21" width="187.52"/>
            <polygon class="cls-5" points="94.18 626.05 107.63 638.05 0.18 638.05 31.88 626.05 94.18 626.05"/>
            <polygon class="cls-22" points="31.88 626.05 0.18 638.05 48.19 595.63 56.23 604.72 31.88 626.05"/>
            <path class="cls-23" d="M107.34,635.1c-.08-1-.13-1.93-.18-2.87l0-.83q-.06-1.39-.06-2.73c0-.09,0-.19,0-.29,0-1,0-1.94.06-2.88l0-.73c0-.79.09-1.57.15-2.32l0-.47c.08-.9.17-1.76.27-2.61,0-.21.05-.41.08-.62.09-.71.19-1.4.3-2.08,0-.16,0-.32.08-.47.13-.81.28-1.59.44-2.35,0-.18.07-.35.11-.52.14-.65.29-1.28.44-1.9l.09-.39c.19-.73.38-1.44.58-2.12,0-.15.09-.3.14-.45q.28-1,.6-1.89l0-.11c0-.08.06-.15.08-.22q.18-.53.36-1c0-.14.1-.27.16-.41s.19-.51.29-.75.11-.3.17-.44l.27-.67.18-.41c.08-.2.17-.39.25-.57s.15-.35.23-.52l.24-.5.22-.48c.08-.16.16-.31.23-.47l.22-.43.22-.43.21-.39.18-.32.31-.56.15-.27.32-.52.1-.17c.13-.22.26-.41.37-.59l.07-.11.25-.38.13-.19.09-.13.12-.16.06-.1.1-.13,0,0,.08-.1-10-6.72-.09.11-.08.11a.7.7,0,0,0-.06.09l-.1.13-.12.17a.91.91,0,0,0-.11.16l-.11.15,0,.06c-.1.13-.2.28-.31.44l-.08.12-.46.67-.12.19c-.13.19-.26.38-.39.59a2.9,2.9,0,0,1-.19.29c-.12.2-.25.41-.39.62l-.12.2-.1.16-.26.42-.27.46c-.1.16-.19.32-.28.48l-.29.48-.28.51-.3.53-.3.54-.18.34a.83.83,0,0,0-.07.13c-.3.56-.61,1.14-.91,1.74l-.16.33c-.32.63-.63,1.29-.94,2v0a.25.25,0,0,1,0,.07c-.26.59-.53,1.2-.79,1.81l-.18.43c-.27.65-.53,1.3-.79,2a.69.69,0,0,1,0,.1l-.08.24c-.21.56-.41,1.14-.61,1.72l-.16.46c-.22.67-.43,1.36-.63,2.05,0,0,0,.08,0,.13s-.05.18-.07.28c-.16.58-.32,1.17-.46,1.76,0,.17-.09.34-.13.52-.16.7-.31,1.42-.44,2.14l0,.1a2.51,2.51,0,0,1,0,.27c-.11.61-.2,1.22-.28,1.84,0,.19-.06.38-.08.57-.09.73-.16,1.47-.21,2.21v.21c-.05.67-.07,1.34-.08,2v.6c0,.68,0,1.36.07,2v.17s0,0,0,0c0,.6.09,1.2.17,1.8l13.45,12c-.11-.89-.19-1.76-.26-2.62Z"/>
            <path class="cls-24" d="M767.72,530.82v-3c-.58-.71-1.14-1.44-1.68-2.17-.18-.24-.34-.48-.52-.73q-.53-.74-1-1.47c-.2-.29-.38-.58-.57-.87-.29-.46-.58-.91-.85-1.37s-.37-.61-.54-.92-.52-.9-.76-1.35-.34-.62-.5-.94-.45-.87-.66-1.31-.31-.63-.46-.94-.41-.9-.61-1.35l-.39-.9c-.2-.48-.39-1-.58-1.43-.11-.27-.22-.54-.32-.81-.22-.58-.42-1.16-.63-1.75,0-.16-.11-.32-.17-.48-.24-.71-.46-1.43-.68-2.14l-.08-.29c-.18-.62-.36-1.23-.52-1.83L756,504c-.12-.46-.23-.91-.34-1.36l-.18-.84c-.09-.41-.18-.81-.26-1.21s-.1-.53-.15-.79c-.09-.43-.17-.87-.24-1.29s-.1-.56-.14-.84-.13-.8-.19-1.19-.08-.56-.11-.84l-.15-1.13-.09-.82c0-.37-.08-.73-.11-1.1s0-.49-.07-.74c0-.52-.08-1-.11-1.55,0-.13,0-.27,0-.4,0-.63-.07-1.25-.09-1.84,0-.16,0-.31,0-.47l0-1.29v-.56c0-.38,0-.76,0-1.12v-.53c0-.14,0-.26,0-.39s0-.53,0-.78,0-.24,0-.36c0-.28,0-.54,0-.8,0-.07,0-.15,0-.22,0-.32,0-.63.05-.92,0-.08,0-.15,0-.23s0-.41,0-.6,0-.18,0-.26,0-.33,0-.49,0-.14,0-.21,0-.34,0-.49v-.08c0-.17,0-.32,0-.45l0-.13,0-.23v-.08l0-.18-11.95-1.1s0,.11,0,.19v.07a2,2,0,0,0,0,.29v.09c0,.15,0,.31-.06.51v.07q0,.27-.06.6c0,.07,0,.14,0,.21s0,.37-.05.58l0,.27c0,.22,0,.45,0,.69,0,.09,0,.18,0,.27,0,.33,0,.67-.07,1,0,.08,0,.16,0,.24,0,.3,0,.6-.05.92,0,.13,0,.27,0,.41s0,.58,0,.88c0,.15,0,.29,0,.45s0,.16,0,.25v.35c0,.41,0,.84,0,1.28v.63c0,.48,0,1,0,1.46,0,.18,0,.35,0,.54,0,.67,0,1.37.06,2.08,0,.15,0,.31,0,.46,0,.57.06,1.16.1,1.76,0,.1,0,.2,0,.31s0,.35,0,.52c0,.41.06.82.1,1.24l.09.92c0,.42.08.85.13,1.28s.07.62.11.93.11.9.18,1.35.08.62.13.93c.07.48.15,1,.23,1.46,0,.24.07.46.11.7l0,.17c.08.45.17.91.26,1.36l.18.94c.1.5.22,1,.33,1.5.06.28.12.55.19.83.16.67.33,1.35.51,2,0,.11.05.22.08.33.22.78.45,1.57.69,2.36v.05c0,.16.11.32.16.48.2.64.41,1.28.63,1.93.11.29.22.58.32.87.2.53.39,1,.6,1.58.12.32.26.65.39,1l.45,1.07C747.82,519,767.72,530.82,767.72,530.82Z"/>
            <polygon class="cls-5" points="457.64 517.98 463.91 529.98 263.53 529.98 277.08 517.98 457.64 517.98"/>
            <path class="cls-25" d="M259.67,361.54l9.75,7.09c-2.8,4.09-5.88,8.62-9.2,13.5-7.67,11.27-16.6,24.43-26.2,38.59S214.15,450,203.84,465.28s-20.7,30.59-30.52,45.12l-27.2,40.26c-16.23,24-27.83,41.19-29.93,44.32l-10-6.72c2.11-3.12,13.7-20.3,29.93-44.32l27.21-40.26c9.82-14.54,20.2-29.88,30.52-45.12s20.58-30.41,30.18-44.57,18.55-27.34,26.22-38.61c3.27-4.94,6.33-9.54,9.37-13.84"/>
            <polygon class="cls-26" points="56.23 604.72 48.19 595.63 275.63 226.61 283.45 236.79 56.23 604.72"/>
            <polygon class="cls-27" points="283.45 236.79 275.63 226.61 443.44 176.37 430.72 192.7 283.45 236.79"/>
            <polygon class="cls-28" points="775.01 120.57 788.51 105.22 754.14 477.21 742.19 476.11 775.01 120.57"/>
            <path class="cls-29" d="M431.07,461.81l-2.48,8.47a12.71,12.71,0,0,0,14.89-5.94L612.72,173.21l-8.07-10Z"/>
            <path class="cls-30" d="M430.72,192.7,419.25,457.24a12.72,12.72,0,0,0,9.34,13l2.48-8.47,12.37-285.44Z"/>
            <path class="cls-5" d="M291.05,337.49l-4.91,7h0L263.53,530l13.55-12,20.55-168.61A11.45,11.45,0,0,0,291.05,337.49Z"/>
            <path class="cls-31" d="M278.83,339.07l-.43.39L276.78,341l-.32.31-1,1-.88.89-.37.38c-.81.84-1.61,1.69-2.39,2.55l-.16.18c-.79.87-1.56,1.76-2.33,2.65-.05.06-.1.13-.16.19-.74.87-1.47,1.76-2.2,2.67l-.33.41c-.7.87-1.4,1.77-2.09,2.67l-.37.48c-.69.91-1.37,1.83-2.06,2.76-.1.15-.21.3-.32.44-.71,1-1.41,1.95-2.12,2.95l0,.05,9.75,7.09,1.93-2.84.28-.41,1.77-2.58.21-.31c.57-.84,1.13-1.65,1.67-2.43l.23-.34c.53-.79,1.06-1.55,1.56-2.29l0-.05.08-.12c.5-.73,1-1.43,1.45-2.1l.13-.2,1.3-1.89.14-.2.1-.14.87-1.27.05-.07a1.77,1.77,0,0,1,.16-.22c.21-.32.42-.62.63-.92l.14-.21.15-.21.44-.63.18-.26.06-.09.62-.89h0l.57-.82.18-.25.35-.5.1-.14,0-.06.47-.65.07-.1.32-.44,0-.06a3.69,3.69,0,0,1,.23-.3l0-.05.11-.12h0l4.91-7A11.2,11.2,0,0,0,278.83,339.07Z"/>
            <polygon class="cls-27" points="612.72 173.21 604.65 163.21 782.98 105.22 788.51 105.22 775.01 120.57 612.72 173.21"/>
            <path class="cls-32" d="M620.56,304.83l4.94-10.93A11.69,11.69,0,0,0,610.71,298L457.64,518l6.27,12Z"/>
          </g>
        </g>
      </g>
      <g>
        <polygon class="cls-33" points="1663.18 226.06 1683.83 294.32 1667.2 281.69 1657.82 250.69 1663.18 226.06"/>
        <polygon class="cls-5" points="1683.83 294.32 1604.58 294.32 1663.18 226.06 1657.82 250.69 1631.21 281.69 1667.2 281.69 1683.83 294.32"/>
        <polygon class="cls-4" points="1657.82 250.69 1667.2 281.69 1631.21 281.69 1657.82 250.69"/>
      </g>
      <rect class="cls-34" x="1220.55" y="222.11" width="331.42" height="7.88"/>
      <polygon class="cls-35" points="1220.55 229.99 811.13 229.99 808.13 222.11 1220.55 222.11 1220.55 229.99"/>
      <g>
        <rect class="cls-36" x="2170.57" y="575.82" width="401.42" height="7.88"/>
        <polygon class="cls-35" points="2170.57 583.7 775.08 583.7 780.08 575.82 2170.57 575.82 2170.57 583.7"/>
      </g>
    </g>
  </g>
</svg>
