<svg viewBox="0 0 200 48" height="48" width="200" xmlns="http://www.w3.org/2000/svg">
  <path fill="#FFFFFF" d="M136.881,48a14.609,14.609,0,0,1-2.959-.352v-.19a8.2,8.2,0,0,0,1.229.065c2.388,0,14.3-.54,14.3-11.194,0-2.736-1.311-4.735-4.125-6.29h.049c-.7-.343-1.366-.632-2.084-.908-.24-.088-.587-.208-1.06-.369-3.475-1.3-7.619-2.6-9.779-3.261a36.986,36.986,0,0,1-4.41-1.66,11.815,11.815,0,0,1-4.586-4.867,13.142,13.142,0,0,1-1.381-5.925,12.264,12.264,0,0,1,3.02-8.041,12.8,12.8,0,0,1,4.438-3.536A15.919,15.919,0,0,1,136.512,0a21.677,21.677,0,0,1,9.652,3.1l2.8-2.046h1.031v11h-1.473c-.79-2.855-1.776-5.793-3.631-7.94C142.827,1.733,139.918.572,136,.572a13.47,13.47,0,0,0-4.7.765,8.757,8.757,0,0,0-3.256,2.079,9.507,9.507,0,0,0-2.507,6.811c0,2.347,1.092,4.068,3.436,5.414a34.954,34.954,0,0,0,7.955,2.772c6.744,1.805,14.388,3.852,16.135,11.627,0,.022.353,2.217.353,3.06a14.043,14.043,0,0,1-3.459,9.207,14.491,14.491,0,0,1-5.082,4.028A18.386,18.386,0,0,1,136.881,48Zm35.15-.5H155.768v-.747h4.82V1.787h-4.82V1.04h16.264v.747h-4.4V6.849h-.011V23.332h20.932V1.787h-4.82V1.04H200v.747h-4.4V46.755H200V47.5H183.735v-.747h4.82v-22.4H167.623v5.264h.011V46.755h4.4V47.5Zm-91.121,0H64.85v-.748h4.485L54.889,1.646,39.344,46.778H42.69V47.5H35.125v-.722h3.143L54.257.357,54.5.445l-.009-.03h7.212l14.964,46.34H80.91V47.5Zm39.766,0H104.63v-.725h4.363V3.147l-15.259,35.8-.008.026h-1.7L78.02,1.831H76.1l-1.017-.043H71.324V1.04H85.007l11.3,29.425L108.785,1.029l.208.012h11.683v.747H116V46.755h4.675V47.5Zm-90.108-.018H0L14.649,24.026,28.5,1.033H14.31A14.723,14.723,0,0,0,9.146,1.8,7.419,7.419,0,0,0,5.828,4.2C4.066,6.442,3.193,9.991,2.425,14.63H1.7L2.532.419H38.075L23.427,23.877,9.638,46.79H30.568v.693Z" data-name="Fill 1" id="Fill_1"></path>
</svg>
